<?xml version="1.0" encoding="UTF-8"?>
<svg xmlns="http://www.w3.org/2000/svg" xmlns:xlink="http://www.w3.org/1999/xlink" width="51px" height="51px" viewBox="0 0 51 51" version="1.1">
<g id="surface1">
<path style=" stroke:none;fill-rule:nonzero;fill:rgb(0%,0%,0%);fill-opacity:1;" d="M 49.445312 34.261719 C 49.183594 34.023438 48.804688 33.976562 48.496094 34.140625 C 39.632812 38.84375 28.753906 35.714844 23.734375 27.019531 C 18.714844 18.328125 21.445312 7.34375 29.949219 2.015625 C 30.246094 1.832031 30.394531 1.476562 30.316406 1.136719 C 30.242188 0.792969 29.960938 0.535156 29.613281 0.492188 C 24.101562 -0.21875 18.648438 0.878906 13.832031 3.660156 C 8.003906 7.019531 3.839844 12.453125 2.097656 18.949219 C 0.355469 25.449219 1.25 32.234375 4.613281 38.058594 C 7.976562 43.886719 13.40625 48.054688 19.90625 49.792969 C 22.074219 50.375 24.277344 50.664062 26.464844 50.664062 C 30.828125 50.664062 35.136719 49.519531 39.015625 47.277344 C 43.832031 44.5 47.507812 40.320312 49.648438 35.195312 C 49.785156 34.871094 49.703125 34.496094 49.445312 34.261719 Z M 49.445312 34.261719 "/>
</g>
</svg>
